# xmcd CD database file
#
# Track frame offsets:
#	182
#	12927
#	27090
#	39387
#	51217
#	64210
#	77127
#	90730
#	102357
#	116322
#	130530
#
# Disc length: 1911 seconds
#
# Revision: 0
# Processed by: cddbd v1.5PL3 Copyright (c) Steve Scherf et al.
# Submitted via: CDex 1.51
#
DISCID=8107750b
DTITLE=Erroll Garner - Play Piano Play
DYEAR=1998
DGENRE=Jazz
TTITLE0=Pastel
TTITLE1=Play Piano Play
TTITLE2=Love Is the Strangest Game
TTITLE3=Blues Carni
TTITLE4=Loose Nut
TTITLE5=Fantasy on Frankie and Johnny
TTITLE6=Trio
TTITLE7=What Is This Thing Called Love?
TTITLE8=These Foolish Things
TTITLE9=Lover Man
TTITLE10=Early in Paris
EXTD=YEAR: 1998
EXTT0=
EXTT1=
EXTT2=
EXTT3=
EXTT4=
EXTT5=
EXTT6=
EXTT7=
EXTT8=
EXTT9=
EXTT10=
PLAYORDER=
